# ProBuilder 4.4.0
# https://unity3d.com/unity/features/worldbuilding/probuilder
# 2020-10-07 8:43:43 PM

mtllib ./HingedDoor.mtl
o HingedDoor

g HingedDoor
v 0 -3.972243 2.596422
v -0.3372955 -3.972243 2.596422
v 0 2.515549 3.314185
v -0.3372955 2.441257 3.314185
v -0.3372955 -3.972243 -3.199672
v -0.3372955 2.441257 -3.917435
v 0 -3.972243 -3.199672
v 0 2.515549 -3.917435

vt 0 -3.662647
vt -0.3372955 -3.662647
vt 0 2.864728
vt -0.3372955 2.790886
vt 2.596422 -3.972243
vt -3.199672 -3.972243
vt 3.314185 2.441257
vt -3.917435 2.441257
vt 0.3372955 -3.591731
vt 0 -3.591731
vt 0.3372955 2.861808
vt 0 2.935639
vt 3.199672 -3.972243
vt -2.596422 -3.972243
vt 3.917435 2.515549
vt -3.314185 2.515549
vt -0.5411009 3.314185
vt -0.1957205 3.314185
vt -0.5411009 -3.917435
vt -0.1957205 -3.917435
vt 0 -3.199672
vt -0.3372955 -3.199672
vt 0 2.596422
vt -0.3372955 2.596422

vn 0 -0.1099619 0.9939358
vn 0.0122449 -0.1105743 0.9937168
vn 0.02448979 -0.1111866 0.9934977
vn -1 0 0
vn 0 -0.1112201 -0.9937958
vn 0.01210647 -0.1105749 -0.9937201
vn 0.02421295 -0.1099297 -0.9936444
vn 1 0 0
vn -0.2151025 0.9765915 0
vn 0 -1 0

usemtl DefaultHDMaterial
f 3/3/2 4/4/3 2/2/2 1/1/1
f 4/7/4 6/8/4 5/6/4 2/5/4
f 6/11/6 8/12/7 7/10/6 5/9/5
f 8/15/8 3/16/8 1/14/8 7/13/8
f 8/19/9 6/20/9 4/18/9 3/17/9
f 1/23/10 2/24/10 5/22/10 7/21/10

